# xmcd
#
# Track frame offsets:
#	150
#	12750
#	26008
#	36002
#	46878
#	57529
#	66693
#	80228
#	93300
#	104872
#
# Disc length: 1550 seconds
#
# Revision: 1
# Processed by: cddbd v1.5.2PL0 Copyright (c) Steve Scherf et al.
# Submitted via: audiograbber 1.83.01
#
DISCID=8d060c0a
DTITLE=Various Artist - Great Country Treasury Of 60 Love Songs LP2
DYEAR=1978
DGENRE=Country
TTITLE0=Ava Barber - Bucket To The South
TTITLE1=Mel Street - If I Had A Cheating Heart
TTITLE2=Lynn Anderson - What A Man My Man Is
TTITLE3=Mary Robbins - Love Is Blue (L'Amour Est Bleu)
TTITLE4=Joe Stampley - Everyday I Have To Cry Some
TTITLE5=Mary Kay Place - Something To Brag About
TTITLE6=Rusty Draper - By The Time I Get To Phoenix
TTITLE7=Barbara Fairchild - Let Me Love You Once Before You Go
TTITLE8=Bob Luman - The Girl In My Life
TTITLE9=Nashville Strings - Love Me, Love Me
EXTD=
EXTT0=
EXTT1=
EXTT2=
EXTT3=
EXTT4=
EXTT5=
EXTT6=
EXTT7=
EXTT8=
EXTT9=
PLAYORDER=
